<svg xmlns="http://www.w3.org/2000/svg" viewBox="0 0 256 256" role="img" aria-labelledby="malcomIconTitle malcomIconDesc">
  <title id="malcomIconTitle">Malcom icon</title>
  <desc id="malcomIconDesc">Purple mascot-inspired Malcom icon with layered middleware rings and monogram.</desc>
  <defs>
    <linearGradient id="ringGradient" x1="0" y1="0" x2="1" y2="1">
      <stop offset="0%" stop-color="#a855f7"/>
      <stop offset="100%" stop-color="#4c1d95"/>
    </linearGradient>
    <linearGradient id="headGradient" x1="0" y1="0" x2="1" y2="1">
      <stop offset="0%" stop-color="#f8fafc"/>
      <stop offset="100%" stop-color="#dbeafe"/>
    </linearGradient>
  </defs>

  <rect x="42" y="126" width="172" height="34" rx="17" fill="url(#ringGradient)"/>
  <rect x="36" y="94" width="184" height="34" rx="17" fill="url(#ringGradient)"/>
  <rect x="30" y="62" width="196" height="34" rx="17" fill="url(#ringGradient)"/>

  <circle cx="128" cy="64" r="44" fill="url(#headGradient)" stroke="#4c1d95" stroke-width="4"/>
  <circle cx="112" cy="58" r="12" fill="#fff" stroke="#4c1d95" stroke-width="4"/>
  <circle cx="144" cy="58" r="12" fill="#fff" stroke="#4c1d95" stroke-width="4"/>
  <circle cx="112" cy="58" r="4" fill="#4c1d95"/>
  <circle cx="144" cy="58" r="4" fill="#4c1d95"/>

  <path d="M104 80c8 10 40 10 48 0" fill="none" stroke="#4c1d95" stroke-width="4" stroke-linecap="round"/>
  <path d="M92 40c8-10 24-18 36-18s28 8 36 18" fill="none" stroke="#6d28d9" stroke-width="8" stroke-linecap="round"/>

  <text x="128" y="240" text-anchor="middle" font-size="36" font-family="Arial, sans-serif" font-weight="700" fill="#4c1d95">M</text>
</svg>
